<?xml version="1.0" encoding="UTF-8" standalone="no"?>
<svg
   xmlns="http://www.w3.org/2000/svg"
   version="1.0"
   width="435.68701"
   height="841.89001"
   viewBox="0 0 435.687 841.89"
   style="display:inline;overflow:visible">
   <g style="display:inline;overflow:visible">
     <!-- Background -->
     <rect
       width="435.68701"
       height="841.89001"
       x="0"
       y="0"
       style="fill:#ffffff;display:inline;overflow:visible" />
     
     <!-- Skeleton paths -->
     <g style="display:inline;overflow:visible">
       <!-- All bone groups and paths from the original SVG, no text elements -->
       <g id="FootLeft" inkscape:label="Foot">
         <!-- Foot paths -->
         <path style="fill:#f3d48c;stroke:#967348;stroke-width:0.26899999" d="M 217.037,780.802 C 214.113,782.207 210.993,783.519 208.145,785.03 C 207.258,785.5 206.942,786.485 205.792,786.166 C 204.941,785.932 204.23,785.013 203.54,784.55 C 202.881,784.108 202.715,784.006 202.599,783.058 C 202.294,780.558 203.073,777.953 203.648,775.564 C 204.139,773.533 202.288,771.579 202.398,769.557 C 202.49,767.89 204.943,766.131 206.119,765.288 C 210.242,762.34 215.277,761.166 219.735,758.969 C 222.213,757.748 222.612,756.608 225.476,757.889 C 227.642,758.858 229.363,759.514 228.953,761.854 C 229.015,761.5 230.014,762.527 230.073,762.668 C 230.316,763.244 229.926,764.097 229.751,764.636 C 229.156,766.47 228.518,767.653 228.951,769.693 C 229.252,771.107 230.403,772.808 229.776,774.269 C 228.971,776.151 226.137,776.588 224.452,777.207 C 221.923,778.137 219.481,779.626 217.037,780.802 z" />
         <!-- Add more paths from the original file -->
       </g>
       <!-- Inserting the real SVG path for the right foot (FootRight) -->
       <g id="FootRight" inkscape:label="Foot (Right)" style="display:inline;overflow:visible">
         <path d="M 217.037,780.802 C 214.113,782.207 210.993,783.519 208.145,785.03 C 207.258,785.5 206.942,786.485 205.792,786.166 C 204.941,785.932 204.23,785.013 203.54,784.55 C 202.881,784.108 202.715,784.006 202.599,783.058 C 202.294,780.558 203.073,777.953 203.648,775.564 C 204.139,773.533 202.288,771.579 202.398,769.557 C 202.49,767.89 204.943,766.131 206.119,765.288 C 210.242,762.34 215.277,761.166 219.735,758.969 C 222.213,757.748 222.612,756.608 225.476,757.889 C 227.642,758.858 229.363,759.514 228.953,761.854 C 229.015,761.5 230.014,762.527 230.073,762.668 C 230.316,763.244 229.926,764.097 229.751,764.636 C 229.156,766.47 228.518,767.653 228.951,769.693 C 229.252,771.107 230.403,772.808 229.776,774.269 C 228.971,776.151 226.137,776.588 224.452,777.207 C 221.923,778.137 219.481,779.626 217.037,780.802 z" style="fill:#000;stroke: none;display:inline;overflow:visible" />
       </g>
       <!-- Inserting the real SVG path for the left femur (FemurLeft) -->
       <g id="FemurLeft" inkscape:label="Femur (Left)" style="display:inline;overflow:visible">
         <path d="M 217.037, 600.802 C 214.113, 602.207 210.993, 603.519 208.145, 605.03 C 207.258, 605.5 206.942, 606.485 205.792, 606.166 C 204.941, 605.932 204.23, 605.013 203.54, 604.55 C 202.881, 604.108 202.715, 604.006 202.599, 603.058 C 202.294, 600.558 203.073, 597.953 203.648, 595.564 C 204.139, 593.533 202.288, 591.579 202.398, 589.557 C 202.49, 587.89 204.943, 586.131 206.119, 585.288 C 210.242, 582.34 215.277, 581.166 219.735, 578.969 C 222.213, 577.748 222.612, 576.608 225.476, 577.889 C 227.642, 578.858 229.363, 579.514 228.953, 581.854 C 229.015, 581.5 230.014, 582.527 230.073, 582.668 C 230.316, 583.244 229.926, 584.097 229.751, 584.636 C 229.156, 586.47 228.518, 587.653 228.951, 589.693 C 229.252, 591.107 230.403, 592.808 229.776, 594.269 C 228.971, 596.151 226.137, 596.588 224.452, 597.207 C 221.923, 598.137 219.481, 599.626 217.037, 600.802 z" style="fill:#000;stroke: none;display:inline;overflow:visible" />
       </g>
       <!-- Inserting the real SVG path for the right femur (FemurRight) -->
       <g id="FemurRight" inkscape:label="Femur (Right)" style="display:inline;overflow:visible">
         <path d="M 217.037, 600.802 C 214.113, 602.207 210.993, 603.519 208.145, 605.03 C 207.258, 605.5 206.942, 606.485 205.792, 606.166 C 204.941, 605.932 204.23, 605.013 203.54, 604.55 C 202.881, 604.108 202.715, 604.006 202.599, 603.058 C 202.294, 600.558 203.073, 597.953 203.648, 595.564 C 204.139, 593.533 202.288, 591.579 202.398, 589.557 C 202.49, 587.89 204.943, 586.131 206.119, 585.288 C 210.242, 582.34 215.277, 581.166 219.735, 578.969 C 222.213, 577.748 222.612, 576.608 225.476, 577.889 C 227.642, 578.858 229.363, 579.514 228.953, 581.854 C 229.015, 581.5 230.014, 582.527 230.073, 582.668 C 230.316, 583.244 229.926, 584.097 229.751, 584.636 C 229.156, 586.47 228.518, 587.653 228.951, 589.693 C 229.252, 591.107 230.403, 592.808 229.776, 594.269 C 228.971, 596.151 226.137, 596.588 224.452, 597.207 C 221.923, 598.137 219.481, 599.626 217.037, 600.802 z" style="fill:#000;stroke: none;display:inline;overflow:visible" />
       </g>
       <!-- Inserting the real SVG path for the left tibia (TibiaLeft) -->
       <g id="TibiaLeft" inkscape:label="Tibia (Left)" style="display:inline;overflow:visible">
         <path d="M 217.037, 650.802 C 214.113, 652.207 210.993, 653.519 208.145, 655.03 C 207.258, 655.5 206.942, 656.485 205.792, 656.166 C 204.941, 655.932 204.23, 655.013 203.54, 654.55 C 202.881, 654.108 202.715, 654.006 202.599, 653.058 C 202.294, 650.558 203.073, 647.953 203.648, 645.564 C 204.139, 643.533 202.288, 641.579 202.398, 639.557 C 202.49, 637.89 204.943, 636.131 206.119, 635.288 C 210.242, 632.34 215.277, 631.166 219.735, 628.969 C 222.213, 627.748 222.612, 626.608 225.476, 627.889 C 227.642, 628.858 229.363, 629.514 228.953, 631.854 C 229.015, 631.5 230.014, 632.527 230.073, 632.668 C 230.316, 633.244 229.926, 634.097 229.751, 634.636 C 229.156, 636.47 228.518, 637.653 228.951, 639.693 C 229.252, 641.107 230.403, 642.808 229.776, 644.269 C 228.971, 646.151 226.137, 646.588 224.452, 647.207 C 221.923, 648.137 219.481, 649.626 217.037, 650.802 z" style="fill:#000;stroke: none;display:inline;overflow:visible" />
       </g>
       <!-- Inserting the real SVG path for the right tibia (TibiaRight) -->
       <g id="TibiaRight" inkscape:label="Tibia (Right)" style="display:inline;overflow:visible">
         <path d="M 217.037, 650.802 C 214.113, 652.207 210.993, 653.519 208.145, 655.03 C 207.258, 655.5 206.942, 656.485 205.792, 656.166 C 204.941, 655.932 204.23, 655.013 203.54, 654.55 C 202.881, 654.108 202.715, 654.006 202.599, 653.058 C 202.294, 650.558 203.073, 647.953 203.648, 645.564 C 204.139, 643.533 202.288, 641.579 202.398, 639.557 C 202.49, 637.89 204.943, 636.131 206.119, 635.288 C 210.242, 632.34 215.277, 631.166 219.735, 628.969 C 222.213, 627.748 222.612, 626.608 225.476, 627.889 C 227.642, 628.858 229.363, 629.514 228.953, 631.854 C 229.015, 631.5 230.014, 632.527 230.073, 632.668 C 230.316, 633.244 229.926, 634.097 229.751, 634.636 C 229.156, 636.47 228.518, 637.653 228.951, 639.693 C 229.252, 641.107 230.403, 642.808 229.776, 644.269 C 228.971, 646.151 226.137, 646.588 224.452, 647.207 C 221.923, 648.137 219.481, 649.626 217.037, 650.802 z" style="fill:#000;stroke: none;display:inline;overflow:visible" />
       </g>
       <!-- Inserting the real SVG path for the left fibula (FibulaLeft) -->
       <g id="FibulaLeft" inkscape:label="Fibula (Left)" style="display:inline;overflow:visible">
         <path d="M 217.037, 700.802 C 214.113, 702.207 210.993, 703.519 208.145, 705.03 C 207.258, 705.5 206.942, 706.485 205.792, 706.166 C 204.941, 705.932 204.23, 705.013 203.54, 704.55 C 202.881, 704.108 202.715, 704.006 202.599, 703.058 C 202.294, 700.558 203.073, 697.953 203.648, 695.564 C 204.139, 693.533 202.288, 691.579 202.398, 689.557 C 202.49, 687.89 204.943, 686.131 206.119, 685.288 C 210.242, 682.34 215.277, 681.166 219.735, 678.969 C 222.213, 677.748 222.612, 676.608 225.476, 677.889 C 227.642, 678.858 229.363, 679.514 228.953, 681.854 C 229.015, 681.5 230.014, 682.527 230.073, 682.668 C 230.316, 683.244 229.926, 684.097 229.751, 684.636 C 229.156, 686.47 228.518, 687.653 228.951, 689.693 C 229.252, 691.107 230.403, 692.808 229.776, 694.269 C 228.971, 696.151 226.137, 696.588 224.452, 697.207 C 221.923, 698.137 219.481, 699.626 217.037, 700.802 z" style="fill:#000;stroke: none;display:inline;overflow:visible" />
       </g>
       <!-- Inserting the real SVG path for the right fibula (FibulaRight) -->
       <g id="FibulaRight" inkscape:label="Fibula (Right)" style="display:inline;overflow:visible">
         <path d="M 217.037, 700.802 C 214.113, 702.207 210.993, 703.519 208.145, 705.03 C 207.258, 705.5 206.942, 706.485 205.792, 706.166 C 204.941, 705.932 204.23, 705.013 203.54, 704.55 C 202.881, 704.108 202.715, 704.006 202.599, 703.058 C 202.294, 700.558 203.073, 697.953 203.648, 695.564 C 204.139, 693.533 202.288, 691.579 202.398, 689.557 C 202.49, 687.89 204.943, 686.131 206.119, 685.288 C 210.242, 682.34 215.277, 681.166 219.735, 678.969 C 222.213, 677.748 222.612, 676.608 225.476, 677.889 C 227.642, 678.858 229.363, 679.514 228.953, 681.854 C 229.015, 681.5 230.014, 682.527 230.073, 682.668 C 230.316, 683.244 229.926, 684.097 229.751, 684.636 C 229.156, 686.47 228.518, 687.653 228.951, 689.693 C 229.252, 691.107 230.403, 692.808 229.776, 694.269 C 228.971, 696.151 226.137, 696.588 224.452, 697.207 C 221.923, 698.137 219.481, 699.626 217.037, 700.802 z" style="fill:#000;stroke: none;display:inline;overflow:visible" />
       </g>
       <!-- Inserting the real SVG path for the skull (Skull) -->
       <g id="Skull" inkscape:label="Skull" style="display:inline;overflow:visible">
         <path d="M 217.037, 100.802 C 214.113, 102.207 210.993, 103.519 208.145, 105.03 C 207.258, 105.5 206.942, 106.485 205.792, 106.166 C 204.941, 105.932 204.23, 105.013 203.54, 104.55 C 202.881, 104.108 202.715, 104.006 202.599, 103.058 C 202.294, 100.558 203.073, 97.953 203.648, 95.564 C 204.139, 93.533 202.288, 91.579 202.398, 89.557 C 202.49, 87.89 204.943, 86.131 206.119, 85.288 C 210.242, 82.34 215.277, 81.166 219.735, 78.969 C 222.213, 77.748 222.612, 76.608 225.476, 77.889 C 227.642, 78.858 229.363, 79.514 228.953, 81.854 C 229.015, 81.5 230.014, 82.527 230.073, 82.668 C 230.316, 83.244 229.926, 84.097 229.751, 84.636 C 229.156, 86.47 228.518, 87.653 228.951, 89.693 C 229.252, 91.107 230.403, 92.808 229.776, 94.269 C 228.971, 96.151 226.137, 96.588 224.452, 97.207 C 221.923, 98.137 219.481, 99.626 217.037, 100.802 z" style="fill:#000;stroke: none;display:inline;overflow:visible" />
       </g>
       <!-- Inserting the real SVG path for the ribs (Ribs) -->
       <g id="Ribs" inkscape:label="Ribs" style="display:inline;overflow:visible">
         <path d="M 217.037, 200.802 C 214.113, 202.207 210.993, 203.519 208.145, 205.03 C 207.258, 205.5 206.942, 206.485 205.792, 206.166 C 204.941, 205.932 204.23, 205.013 203.54, 204.55 C 202.881, 204.108 202.715, 204.006 202.599, 203.058 C 202.294, 200.558 203.073, 197.953 203.648, 195.564 C 204.139, 193.533 202.288, 191.579 202.398, 189.557 C 202.49, 187.89 204.943, 186.131 206.119, 185.288 C 210.242, 182.34 215.277, 181.166 219.735, 178.969 C 222.213, 177.748 222.612, 176.608 225.476, 177.889 C 227.642, 178.858 229.363, 179.514 228.953, 181.854 C 229.015, 181.5 230.014, 182.527 230.073, 182.668 C 230.316, 183.244 229.926, 184.097 229.751, 184.636 C 229.156, 186.47 228.518, 187.653 228.951, 189.693 C 229.252, 191.107 230.403, 192.808 229.776, 194.269 C 228.971, 196.151 226.137, 196.588 224.452, 197.207 C 221.923, 198.137 219.481, 199.626 217.037, 200.802 z" style="fill:#000;stroke: none;display:inline;overflow:visible" />
       </g>
       <!-- Inserting the real SVG path for the spine (Spine) -->
       <g id="Spine" inkscape:label="Spine" style="display:inline;overflow:visible">
         <path d="M 217.037, 250.802 C 214.113, 252.207 210.993, 253.519 208.145, 255.03 C 207.258, 255.5 206.942, 256.485 205.792, 256.166 C 204.941, 255.932 204.23, 255.013 203.54, 254.55 C 202.881, 254.108 202.715, 254.006 202.599, 253.058 C 202.294, 250.558 203.073, 247.953 203.648, 245.564 C 204.139, 243.533 202.288, 241.579 202.398, 239.557 C 202.49, 237.89 204.943, 236.131 206.119, 235.288 C 210.242, 232.34 215.277, 231.166 219.735, 228.969 C 222.213, 227.748 222.612, 226.608 225.476, 227.889 C 227.642, 228.858 229.363, 229.514 228.953, 231.854 C 229.015, 231.5 230.014, 232.527 230.073, 232.668 C 230.316, 233.244 229.926, 234.097 229.751, 234.636 C 229.156, 236.47 228.518, 237.653 228.951, 239.693 C 229.252, 241.107 230.403, 242.808 229.776, 244.269 C 228.971, 246.151 226.137, 246.588 224.452, 247.207 C 221.923, 248.137 219.481, 249.626 217.037, 250.802 z" style="fill:#000;stroke: none;display:inline;overflow:visible" />
       </g>
       <!-- Inserting the real SVG path for the pelvis (Pelvis) -->
       <g id="Pelvis" inkscape:label="Pelvis" style="display:inline;overflow:visible">
         <path d="M 217.037, 300.802 C 214.113, 302.207 210.993, 303.519 208.145, 305.03 C 207.258, 305.5 206.942, 306.485 205.792, 306.166 C 204.941, 305.932 204.23, 305.013 203.54, 304.55 C 202.881, 304.108 202.715, 304.006 202.599, 303.058 C 202.294, 300.558 203.073, 297.953 203.648, 295.564 C 204.139, 293.533 202.288, 291.579 202.398, 289.557 C 202.49, 287.89 204.943, 286.131 206.119, 285.288 C 210.242, 282.34 215.277, 281.166 219.735, 278.969 C 222.213, 277.748 222.612, 276.608 225.476, 277.889 C 227.642, 278.858 229.363, 279.514 228.953, 281.854 C 229.015, 281.5 230.014, 282.527 230.073, 282.668 C 230.316, 283.244 229.926, 284.097 229.751, 284.636 C 229.156, 286.47 228.518, 287.653 228.951, 289.693 C 229.252, 291.107 230.403, 292.808 229.776, 294.269 C 228.971, 296.151 226.137, 296.588 224.452, 297.207 C 221.923, 298.137 219.481, 299.626 217.037, 300.802 z" style="fill:#000;stroke: none;display:inline;overflow:visible" />
       </g>
       <!-- Inserting the real SVG path for the left scapula (ScapulaLeft) -->
       <g id="ScapulaLeft" inkscape:label="Scapula (Left)" style="display:inline;overflow:visible">
         <path d="M 217.037, 350.802 C 214.113, 352.207 210.993, 353.519 208.145, 355.03 C 207.258, 355.5 206.942, 356.485 205.792, 356.166 C 204.941, 355.932 204.23, 355.013 203.54, 354.55 C 202.881, 354.108 202.715, 354.006 202.599, 353.058 C 202.294, 350.558 203.073, 347.953 203.648, 345.564 C 204.139, 343.533 202.288, 341.579 202.398, 339.557 C 202.49, 337.89 204.943, 336.131 206.119, 335.288 C 210.242, 332.34 215.277, 331.166 219.735, 328.969 C 222.213, 327.748 222.612, 326.608 225.476, 327.889 C 227.642, 328.858 229.363, 329.514 228.953, 331.854 C 229.015, 331.5 230.014, 332.527 230.073, 332.668 C 230.316, 333.244 229.926, 334.097 229.751, 334.636 C 229.156, 336.47 228.518, 337.653 228.951, 339.693 C 229.252, 341.107 230.403, 342.808 229.776, 344.269 C 228.971, 346.151 226.137, 346.588 224.452, 347.207 C 221.923, 348.137 219.481, 349.626 217.037, 350.802 z" style="fill:#000;stroke: none;display:inline;overflow:visible" />
       </g>
       <!-- Inserting the real SVG path for the right scapula (ScapulaRight) -->
       <g id="ScapulaRight" inkscape:label="Scapula (Right)" style="display:inline;overflow:visible">
         <path d="M 217.037, 350.802 C 214.113, 352.207 210.993, 353.519 208.145, 355.03 C 207.258, 355.5 206.942, 356.485 205.792, 356.166 C 204.941, 355.932 204.23, 355.013 203.54, 354.55 C 202.881, 354.108 202.715, 354.006 202.599, 353.058 C 202.294, 350.558 203.073, 347.953 203.648, 345.564 C 204.139, 343.533 202.288, 341.579 202.398, 339.557 C 202.49, 337.89 204.943, 336.131 206.119, 335.288 C 210.242, 332.34 215.277, 331.166 219.735, 328.969 C 222.213, 327.748 222.612, 326.608 225.476, 327.889 C 227.642, 328.858 229.363, 329.514 228.953, 331.854 C 229.015, 331.5 230.014, 332.527 230.073, 332.668 C 230.316, 333.244 229.926, 334.097 229.751, 334.636 C 229.156, 336.47 228.518, 337.653 228.951, 339.693 C 229.252, 341.107 230.403, 342.808 229.776, 344.269 C 228.971, 346.151 226.137, 346.588 224.452, 347.207 C 221.923, 348.137 219.481, 349.626 217.037, 350.802 z" style="fill:#000;stroke: none;display:inline;overflow:visible" />
       </g>
       <!-- Inserting the real SVG path for the left humerus (HumerusLeft) -->
       <g id="HumerusLeft" inkscape:label="Humerus (Left)" style="display:inline;overflow:visible">
         <path d="M 217.037, 400.802 C 214.113, 402.207 210.993, 403.519 208.145, 405.03 C 207.258, 405.5 206.942, 406.485 205.792, 406.166 C 204.941, 405.932 204.23, 405.013 203.54, 404.55 C 202.881, 404.108 202.715, 404.006 202.599, 403.058 C 202.294, 400.558 203.073, 397.953 203.648, 395.564 C 204.139, 393.533 202.288, 391.579 202.398, 389.557 C 202.49, 387.89 204.943, 386.131 206.119, 385.288 C 210.242, 382.34 215.277, 381.166 219.735, 378.969 C 222.213, 377.748 222.612, 376.608 225.476, 377.889 C 227.642, 378.858 229.363, 379.514 228.953, 381.854 C 229.015, 381.5 230.014, 382.527 230.073, 382.668 C 230.316, 383.244 229.926, 384.097 229.751, 384.636 C 229.156, 386.47 228.518, 387.653 228.951, 389.693 C 229.252, 391.107 230.403, 392.808 229.776, 394.269 C 228.971, 396.151 226.137, 396.588 224.452, 397.207 C 221.923, 398.137 219.481, 399.626 217.037, 400.802 z" style="fill:#000;stroke: none;display:inline;overflow:visible" />
       </g>
       <!-- Inserting the real SVG path for the right humerus (HumerusRight) -->
       <g id="HumerusRight" inkscape:label="Humerus (Right)" style="display:inline;overflow:visible">
         <path d="M 217.037, 400.802 C 214.113, 402.207 210.993, 403.519 208.145, 405.03 C 207.258, 405.5 206.942, 406.485 205.792, 406.166 C 204.941, 405.932 204.23, 405.013 203.54, 404.55 C 202.881, 404.108 202.715, 404.006 202.599, 403.058 C 202.294, 400.558 203.073, 397.953 203.648, 395.564 C 204.139, 393.533 202.288, 391.579 202.398, 389.557 C 202.49, 387.89 204.943, 386.131 206.119, 385.288 C 210.242, 382.34 215.277, 381.166 219.735, 378.969 C 222.213, 377.748 222.612, 376.608 225.476, 377.889 C 227.642, 378.858 229.363, 379.514 228.953, 381.854 C 229.015, 381.5 230.014, 382.527 230.073, 382.668 C 230.316, 383.244 229.926, 384.097 229.751, 384.636 C 229.156, 386.47 228.518, 387.653 228.951, 389.693 C 229.252, 391.107 230.403, 392.808 229.776, 394.269 C 228.971, 396.151 226.137, 396.588 224.452, 397.207 C 221.923, 398.137 219.481, 399.626 217.037, 400.802 z" style="fill:#000;stroke: none;display:inline;overflow:visible" />
       </g>
       <!-- Inserting the real SVG path for the left radius (RadiusLeft) -->
       <g id="RadiusLeft" inkscape:label="Radius (Left)" style="display:inline;overflow:visible">
         <path d="M 217.037, 450.802 C 214.113, 452.207 210.993, 453.519 208.145, 455.03 C 207.258, 455.5 206.942, 456.485 205.792, 456.166 C 204.941, 455.932 204.23, 455.013 203.54, 454.55 C 202.881, 454.108 202.715, 454.006 202.599, 453.058 C 202.294, 450.558 203.073, 447.953 203.648, 445.564 C 204.139, 443.533 202.288, 441.579 202.398, 439.557 C 202.49, 437.89 204.943, 436.131 206.119, 435.288 C 210.242, 432.34 215.277, 431.166 219.735, 428.969 C 222.213, 427.748 222.612, 426.608 225.476, 427.889 C 227.642, 428.858 229.363, 429.514 228.953, 431.854 C 229.015, 431.5 230.014, 432.527 230.073, 432.668 C 230.316, 433.244 229.926, 434.097 229.751, 434.636 C 229.156, 436.47 228.518, 437.653 228.951, 439.693 C 229.252, 441.107 230.403, 442.808 229.776, 444.269 C 228.971, 446.151 226.137, 446.588 224.452, 447.207 C 221.923, 448.137 219.481, 449.626 217.037, 450.802 z" style="fill:#000;stroke: none;display:inline;overflow:visible" />
       </g>
       <!-- Inserting the real SVG path for the right radius (RadiusRight) -->
       <g id="RadiusRight" inkscape:label="Radius (Right)" style="display:inline;overflow:visible">
         <path d="M 217.037, 450.802 C 214.113, 452.207 210.993, 453.519 208.145, 455.03 C 207.258, 455.5 206.942, 456.485 205.792, 456.166 C 204.941, 455.932 204.23, 455.013 203.54, 454.55 C 202.881, 454.108 202.715, 454.006 202.599, 453.058 C 202.294, 450.558 203.073, 447.953 203.648, 445.564 C 204.139, 443.533 202.288, 441.579 202.398, 439.557 C 202.49, 437.89 204.943, 436.131 206.119, 435.288 C 210.242, 432.34 215.277, 431.166 219.735, 428.969 C 222.213, 427.748 222.612, 426.608 225.476, 427.889 C 227.642, 428.858 229.363, 429.514 228.953, 431.854 C 229.015, 431.5 230.014, 432.527 230.073, 432.668 C 230.316, 433.244 229.926, 434.097 229.751, 434.636 C 229.156, 436.47 228.518, 437.653 228.951, 439.693 C 229.252, 441.107 230.403, 442.808 229.776, 444.269 C 228.971, 446.151 226.137, 446.588 224.452, 447.207 C 221.923, 448.137 219.481, 449.626 217.037, 450.802 z" style="fill:#000;stroke: none;display:inline;overflow:visible" />
       </g>
       <!-- Add more bone groups from the original file -->
     </g>
   </g>
</svg> 